<?xml version="1.0" standalone="no"?>
<!DOCTYPE svg PUBLIC "-//W3C//DTD SVG 20010904//EN"
 "http://www.w3.org/TR/2001/REC-SVG-20010904/DTD/svg10.dtd">
<svg version="1.0" xmlns="http://www.w3.org/2000/svg"
 width="2801.000000pt" height="2801.000000pt" viewBox="0 0 2801.000000 2801.000000"
 preserveAspectRatio="xMidYMid meet">
<metadata>
Created by potrace 1.11, written by Peter Selinger 2001-2013
</metadata>
<g transform="translate(0.000000,2801.000000) scale(0.100000,-0.100000)"
fill="#000000" stroke="none">
<path d="M13365 27993 c-327 -14 -873 -62 -1220 -108 -2614 -348 -5089 -1437
-7115 -3131 -2033 -1699 -3523 -3898 -4340 -6399 -722 -2215 -879 -4625 -449
-6925 441 -2366 1513 -4616 3074 -6455 452 -533 1042 -1126 1575 -1586 1527
-1314 3374 -2304 5310 -2845 1198 -335 2370 -503 3635 -521 1219 -17 2390 117
3553 407 3140 783 5901 2617 7845 5213 933 1246 1663 2667 2126 4139 456 1450
670 2915 648 4433 -8 535 -29 880 -82 1360 -232 2080 -926 4070 -2040 5850
-1573 2515 -3905 4469 -6645 5570 -1454 585 -2954 912 -4560 995 -171 9 -1126
11 -1315 3z"/>
</g>
</svg>
